<svg width="576" height="245" viewBox="0 0 576 245" fill="none" xmlns="http://www.w3.org/2000/svg">
    <g clip-path="url(#clip0_2485_35)">
        <rect width="576" height="245" rx="45" fill="#9C4EE2"/>
        <path d="M80.8125 168L112.188 77.5H136.312L167.562 168H147.438L140.625 147.125H107.875L101.062 168H80.8125ZM135.875 132.5L124.562 97.875H123.938L112.625 132.5H135.875ZM177.812 168V77.5H210.062C219.104 77.5 226.917 79.3125 233.5 82.9375C240.083 86.5208 245.125 91.7083 248.625 98.5C252.167 105.292 253.938 113.333 253.938 122.625C253.938 132 252.167 140.104 248.625 146.938C245.083 153.729 240 158.938 233.375 162.562C226.75 166.188 218.854 168 209.688 168H177.812ZM208.938 151.875C217.688 151.875 224.25 149.5 228.625 144.75C233 140 235.188 132.625 235.188 122.625C235.188 112.708 233 105.396 228.625 100.688C224.292 95.9792 217.771 93.625 209.062 93.625H196.562V151.875H208.938ZM290.812 77.5L315.938 138.875H316.938L342.062 77.5H365.312V168H347.062V108.75H346.312L322.688 167.625H310.188L286.562 108.5H285.812V168H267.562V77.5H290.812ZM399.312 168H380.562V77.5H399.312V168ZM490.062 168H473.812L434.062 110.5H433.312V168H414.562V77.5H431.062L470.562 135H471.438V77.5H490.062V168Z" fill="white"/>
    </g>
    <defs>
        <clipPath id="clip0_2485_35">
            <rect width="576" height="245" fill="white"/>
        </clipPath>
    </defs>
</svg>
