<svg width="665" height="665" viewBox="0 0 665 665" fill="none" xmlns="http://www.w3.org/2000/svg">
    <g clip-path="url(#clip0_2483_2)">
        <path d="M52.4225 656.048C42.4787 655.081 35.1468 646.221 36.7088 636.353C47.4409 568.554 81.0388 506.24 132.204 459.941C187.854 409.585 260.283 381.794 335.334 382.001C410.384 382.209 482.659 410.4 538.029 461.063C588.938 507.644 622.19 570.143 632.547 638C634.055 647.877 626.674 656.696 616.725 657.609V657.609C606.776 658.522 598.034 651.18 596.446 641.317C586.965 582.43 557.869 528.256 513.606 487.755C464.88 443.172 401.278 418.363 335.234 418.181C269.189 417.998 205.451 442.454 156.48 486.768C111.993 527.023 82.5983 581.036 72.7916 639.869C71.1489 649.723 62.3663 657.016 52.4225 656.048V656.048Z" fill="#8C8C8C"/>
        <path d="M333 71C405.349 71 464 129.651 464 202C464 274.349 405.349 333 333 333C260.651 333 202 274.349 202 202C202 129.651 260.651 71 333 71ZM333 112C283.294 112 243 152.294 243 202C243 251.706 283.294 292 333 292C382.706 292 423 251.706 423 202C423 152.294 382.706 112 333 112Z" fill="#8C8C8C"/>
    </g>
    <defs>
        <clipPath id="clip0_2483_2">
            <rect width="665" height="665" fill="white"/>
        </clipPath>
    </defs>
</svg>
